<?xml version="1.0" encoding="utf-8"?>
<!-- Generator: Adobe Illustrator 16.0.0, SVG Export Plug-In . SVG Version: 6.00 Build 0)  -->
<!DOCTYPE svg PUBLIC "-//W3C//DTD SVG 1.1//EN" "http://www.w3.org/Graphics/SVG/1.1/DTD/svg11.dtd">
<svg version="1.1" id="Layer_1" xmlns="http://www.w3.org/2000/svg" xmlns:xlink="http://www.w3.org/1999/xlink" x="0px" y="0px"
	 width="240px" height="71.529px" viewBox="0 0 240 71.529" enable-background="new 0 0 240 71.529" xml:space="preserve">
<path fill="#FFFFFF" d="M207.729,55.828c0.48,0,0.952-0.013,0.952-0.556c0-0.443-0.369-0.547-0.753-0.547h-0.717v1.103H207.729z
	 M207.211,57.578h-0.391v-3.187h1.217c0.718,0,1.036,0.312,1.036,0.881c0,0.563-0.371,0.815-0.801,0.89l0.947,1.416h-0.458
	l-0.895-1.416h-0.656V57.578z M205.501,55.985c0,1.315,0.987,2.361,2.316,2.361c1.328,0,2.316-1.046,2.316-2.361
	c0-1.318-0.988-2.364-2.316-2.364C206.488,53.621,205.501,54.667,205.501,55.985 M210.562,55.985c0,1.549-1.195,2.754-2.744,2.754
	c-1.552,0-2.747-1.205-2.747-2.754c0-1.55,1.195-2.757,2.747-2.757C209.366,53.228,210.562,54.435,210.562,55.985"/>
<path fill="#FFFFFF" d="M189.385,41.675l1.146-5.54h3.649l0.913-4.42l8.575-5.148l-2.008,9.568h4.562l-1.148,5.54h-4.585
	l-2.425,11.575c-0.435,2.094-0.653,3.293-0.653,3.587c0,0.571,0.184,1.019,0.548,1.339c0.366,0.32,1.027,0.482,1.98,0.482
	c0.331,0,1.155-0.062,2.476-0.182l-1.171,5.536c-1.286,0.261-2.606,0.391-3.961,0.391c-2.643,0-4.562-0.504-5.761-1.521
	c-1.198-1.014-1.798-2.424-1.798-4.224c0-0.852,0.322-2.81,0.963-5.878l2.322-11.105H189.385z M178.467,36.136h7.478l-5.784,27.619
	h-7.481L178.467,36.136z M156.785,41.675l1.145-5.54h3.647l0.913-4.42l8.573-5.148l-2.006,9.568h4.562l-1.147,5.54h-4.587
	l-2.424,11.575c-0.433,2.094-0.651,3.293-0.651,3.587c0,0.571,0.183,1.019,0.546,1.339c0.366,0.32,1.026,0.482,1.983,0.482
	c0.328,0,1.153-0.062,2.472-0.182l-1.172,5.536c-1.284,0.261-2.603,0.391-3.961,0.391c-2.64,0-4.559-0.504-5.76-1.521
	c-1.195-1.014-1.797-2.424-1.797-4.224c0-0.852,0.321-2.81,0.965-5.878l2.32-11.105H156.785z M144.715,46.955
	c0-1.768-0.515-3.186-1.549-4.252s-2.369-1.598-4-1.598c-1.618,0-3.052,0.499-4.302,1.496c-1.25,0.993-2.224,2.442-2.916,4.34
	c-0.697,1.901-1.044,3.645-1.044,5.241c0,1.976,0.538,3.545,1.614,4.705c1.079,1.165,2.433,1.743,4.066,1.743
	c2.052,0,3.771-0.875,5.161-2.625C143.727,53.528,144.715,50.51,144.715,46.955 M123.398,52.287c0-5.114,1.445-9.195,4.34-12.236
	c2.893-3.043,6.694-4.562,11.4-4.562c4.082,0,7.272,1.121,9.563,3.366c2.295,2.246,3.441,5.266,3.441,9.063
	c0,4.472-1.433,8.34-4.3,11.6c-2.867,3.259-6.708,4.887-11.518,4.887c-2.609,0-4.918-0.519-6.932-1.561
	c-2.018-1.04-3.521-2.513-4.511-4.42C123.893,56.518,123.398,54.47,123.398,52.287 M95.436,36.136h7.478l-3.415,16.36
	c-0.417,1.958-0.623,3.181-0.623,3.667c0,0.796,0.293,1.479,0.884,2.053c0.591,0.573,1.347,0.858,2.268,0.858
	c0.66,0,1.313-0.127,1.955-0.379c0.643-0.249,1.302-0.63,1.981-1.142c0.677-0.512,1.285-1.098,1.822-1.758
	c0.54-0.657,1.044-1.523,1.512-2.599c0.331-0.798,0.687-2.099,1.071-3.903l2.759-13.158h7.481l-5.784,27.619h-6.987l0.782-3.744
	c-3.057,2.929-6.384,4.394-9.981,4.394c-2.278,0-4.066-0.649-5.369-1.948c-1.301-1.302-1.955-3.045-1.955-5.229
	c0-0.951,0.295-2.849,0.887-5.694L95.436,36.136z M74.795,54.523c1.581-1.596,2.852-3.656,3.816-6.19
	c0.965-2.529,1.448-4.916,1.448-7.151c0-3.016-0.81-5.376-2.425-7.084c-1.614-1.708-3.677-2.562-6.177-2.562
	c-1.721,0-3.308,0.395-4.767,1.182c-1.462,0.79-2.803,1.931-4.027,3.419c-1.225,1.493-2.225,3.337-2.998,5.54
	c-0.773,2.203-1.161,4.405-1.161,6.605c0,2.967,0.822,5.302,2.464,7.008c1.641,1.709,3.741,2.563,6.295,2.563
	c0.712,0,1.459-0.054,2.24-0.156c0.277-0.054,0.448-0.104,0.509-0.157c0.061-0.052,0.091-0.13,0.091-0.232
	c0-0.14-0.26-0.451-0.783-0.938c-1.092-1.04-2.258-1.784-3.491-2.236l2.867-4.369C71.041,50.943,73.074,52.529,74.795,54.523
	 M74.142,63c-1.217,0.467-2.477,0.823-3.778,1.067c-1.304,0.243-2.65,0.361-4.04,0.361c-4.656,0-8.422-1.45-11.298-4.353
	c-2.875-2.905-4.314-6.699-4.314-11.38c0-3.831,0.897-7.705,2.686-11.625c1.79-3.918,4.312-6.913,7.57-8.982
	c3.259-2.072,6.962-3.11,11.114-3.11c4.727,0,8.541,1.464,11.441,4.383c2.903,2.922,4.354,6.81,4.354,11.664
	c0,3.711-0.779,7.264-2.334,10.662c-1.554,3.397-3.633,6.154-6.24,8.268c1.668,1.633,3.422,2.965,5.264,4.008l-3.702,4.862
	C78.436,67.645,76.192,65.706,74.142,63"/>
<path fill="#0075C9" d="M29.264,48.212c-0.581-22.947,37.59-42.514,85.258-43.704c22.741-0.568,43.533,3.149,59.124,9.686
	C157.7,5.263,134.036-0.264,107.677,0.009C59.998,0.503,21.572,19.782,21.853,43.071c0.133,11.087,9.017,21.077,23.429,28.458
	C35.395,65.049,29.489,57.023,29.264,48.212"/>
<path fill="#FFFFFF" d="M178.102,15.134c-2.395,1.76-3.95,4.601-3.95,7.804c0,5.339,4.313,9.666,9.638,9.666
	c5.323,0,9.638-4.327,9.638-9.666c0-5.337-4.314-9.666-9.638-9.666c-0.139,0-0.282-0.017-0.42,0.008
	c-0.687,0.122-1.76,0.956-1.76,0.956c-1.29,1.148-0.819,1.851-0.646,1.763c0.174-0.091,1.54-0.425,2.373-0.425
	c3.91,0,7.08,3.283,7.08,7.331s-3.17,7.334-7.08,7.334c-3.909,0-7.079-3.286-7.079-7.334c0-2.17,0.813-4.184,2.256-5.525
	c0,0,0.122-0.204,0.157-0.723c0.062-0.82,0.28-1.186,0.141-1.519C178.67,14.803,178.102,15.134,178.102,15.134"/>
</svg>
